<?xml version="1.0" standalone="no"?>
<!DOCTYPE svg PUBLIC "-//W3C//DTD SVG 20010904//EN"
 "http://www.w3.org/TR/2001/REC-SVG-20010904/DTD/svg10.dtd">
<svg version="1.0" xmlns="http://www.w3.org/2000/svg"
 width="2076.000000pt" height="954.000000pt" viewBox="0 0 2076.000000 954.000000"
 preserveAspectRatio="xMidYMid meet">
<metadata>
Created by potrace 1.16, written by Peter Selinger 2001-2019
</metadata>
<g transform="translate(0.000000,954.000000) scale(0.100000,-0.100000)"
fill="#000000" stroke="none">
<path d="M0 4770 l0 -4770 10380 0 10380 0 0 4770 0 4770 -10380 0 -10380 0 0
-4770z m15083 539 c38 -19 57 -51 57 -97 0 -37 -6 -50 -35 -79 -34 -34 -38
-35 -95 -31 -49 3 -65 10 -90 33 -25 24 -30 37 -30 76 0 40 5 53 31 78 27 27
37 31 85 31 31 0 65 -5 77 -11z m-305 -467 l2 -413 -102 3 c-97 3 -103 4 -106
24 l-3 22 -45 -25 c-99 -56 -238 -37 -324 43 -58 54 -89 123 -97 213 -11 129
42 236 146 294 45 26 68 31 135 35 71 3 87 1 129 -21 l47 -24 0 127 c0 70 3
130 7 134 4 4 52 5 107 4 l101 -3 3 -413z m-4648 -2 l0 -410 -110 0 -110 0 0
410 0 410 110 0 110 0 0 -410z m-5372 361 c33 -10 75 -29 94 -41 41 -28 88
-71 88 -80 0 -4 -32 -35 -70 -69 l-70 -63 -40 35 c-131 112 -318 49 -349 -118
-26 -138 54 -250 189 -263 62 -6 113 12 161 55 l39 35 70 -62 c38 -34 70 -66
70 -70 0 -17 -77 -74 -137 -102 -109 -51 -281 -53 -388 -4 -79 36 -124 73
-166 138 -124 192 -74 446 111 563 103 65 274 85 398 46z m5042 -76 l0 -85
-295 0 -295 0 0 85 0 85 295 0 295 0 0 -85z m2892 -135 c73 -121 135 -220 138
-220 3 0 64 99 135 220 l130 220 88 0 87 0 -21 -42 c-57 -112 -172 -320 -267
-480 l-104 -178 -53 0 -52 0 -94 153 c-92 149 -299 523 -299 539 0 4 40 8 89
8 l90 0 133 -220z m-3752 100 l0 -80 70 0 70 0 0 -80 0 -80 -70 0 -70 0 0
-108 c0 -138 10 -155 82 -150 l50 3 24 -64 c13 -35 24 -67 24 -71 0 -32 -193
-48 -260 -21 -48 19 -89 58 -111 106 -15 32 -19 65 -19 173 l0 132 -45 0 -45
0 0 80 0 80 45 0 45 0 0 80 0 80 105 0 105 0 0 -80z m-3415 -111 c19 -33 35
-65 35 -70 0 -6 -34 -69 -75 -140 -41 -71 -75 -133 -75 -139 0 -20 26 -9 41
18 86 148 132 223 135 219 3 -2 -25 -55 -61 -116 -36 -62 -65 -116 -65 -122 0
-5 6 -9 14 -9 8 0 40 45 72 100 31 56 59 99 61 96 3 -3 -18 -45 -46 -93 -56
-97 -58 -103 -37 -103 8 0 37 39 65 88 28 48 51 81 51 74 0 -8 -18 -44 -40
-81 -44 -74 -46 -81 -26 -81 8 0 31 27 51 60 48 79 56 77 12 -2 l-35 -63 -167
-3 c-126 -2 -166 -5 -162 -15 2 -8 48 -14 153 -17 l149 -6 -138 -2 c-126 -2
-138 -4 -135 -19 3 -16 20 -19 128 -23 l125 -6 -117 -2 c-100 -2 -117 -4 -112
-17 5 -12 28 -15 108 -17 l101 -2 -93 -3 c-68 -3 -92 -7 -89 -16 2 -7 30 -13
75 -15 40 -2 72 -7 72 -13 0 -6 -29 -9 -72 -7 l-73 3 -73 125 c-40 69 -77 132
-82 140 -6 11 -12 12 -20 4 -8 -8 9 -45 60 -134 39 -68 69 -127 68 -131 -2 -5
-34 46 -71 111 -38 66 -73 118 -78 115 -16 -10 -10 -24 47 -126 31 -55 55
-102 52 -104 -2 -3 -29 38 -58 90 -30 52 -57 95 -61 95 -23 0 -15 -28 27 -100
25 -45 44 -83 41 -86 -3 -3 -24 29 -47 71 -33 60 -45 74 -55 65 -11 -9 -7 -22
22 -71 19 -33 33 -63 30 -65 -2 -3 -16 14 -29 38 -52 89 -55 72 32 223 44 75
80 139 80 141 0 2 -8 4 -17 4 -12 0 -41 -40 -88 -124 -38 -68 -71 -120 -73
-115 -2 5 21 50 51 101 82 140 81 138 60 138 -12 0 -35 -30 -71 -95 -30 -52
-59 -98 -65 -102 -10 -6 31 71 80 149 28 45 28 48 6 48 -12 0 -34 -28 -63 -80
-25 -44 -49 -80 -53 -80 -5 0 0 15 11 33 71 117 75 127 55 127 -12 0 -30 -21
-52 -60 -19 -33 -37 -58 -39 -56 -2 3 13 34 33 70 l37 66 159 0 c99 0 159 4
159 10 0 6 -55 10 -144 10 -86 0 -147 4 -151 10 -4 6 43 10 134 10 121 0 140
2 135 15 -5 12 -30 15 -128 17 l-121 2 113 3 c90 3 112 7 112 18 0 19 -25 24
-125 28 l-80 3 92 2 c76 2 91 5 87 17 -4 10 -27 15 -82 18 l-77 3 80 2 80 1
79 -139 c71 -126 96 -155 96 -115 0 12 -44 92 -122 223 -11 17 -16 32 -11 32
4 0 39 -55 77 -121 54 -94 71 -117 78 -105 7 12 -7 44 -51 121 -33 58 -56 105
-52 105 5 0 15 -12 22 -27 51 -102 92 -164 102 -154 12 12 -7 55 -58 139 -14
23 -23 42 -18 42 4 0 26 -32 48 -70 22 -38 43 -70 47 -70 21 0 15 26 -16 80
-20 34 -36 63 -36 66 0 14 13 -3 45 -57z m760 42 c49 -22 100 -78 116 -128 8
-23 14 -121 16 -250 l4 -213 -105 0 -106 0 0 153 c-1 181 -9 234 -41 258 -30
23 -97 24 -128 3 -43 -30 -51 -71 -51 -249 l0 -165 -105 0 -105 0 0 300 0 300
100 0 100 0 0 -32 c0 -29 1 -30 18 -15 62 56 206 75 287 38z m741 -16 c51 -26
124 -99 124 -124 0 -7 -144 -81 -159 -81 -5 0 -25 16 -44 35 -29 29 -42 35
-78 35 -49 0 -101 -27 -120 -61 -17 -33 -14 -123 7 -157 45 -77 156 -81 210
-8 l19 26 82 -43 82 -43 -18 -29 c-49 -79 -120 -121 -221 -132 -173 -18 -336
75 -376 215 -36 123 6 262 100 333 73 55 124 69 237 66 84 -2 104 -6 155 -32z
m652 0 c59 -32 92 -67 123 -127 24 -47 43 -142 35 -174 l-6 -24 -215 0 c-118
0 -215 -3 -215 -8 0 -17 33 -53 62 -68 47 -24 139 -21 184 6 l36 23 56 -56
c64 -64 63 -71 -19 -113 -73 -37 -174 -51 -260 -36 -174 30 -272 138 -273 302
-1 86 13 134 54 185 40 50 73 74 139 102 48 20 69 23 151 20 83 -2 102 -7 148
-32z m757 11 c64 -30 111 -77 144 -146 21 -46 26 -69 25 -140 0 -138 -55 -230
-169 -282 -71 -32 -184 -32 -238 0 -21 12 -40 22 -43 22 -2 0 -4 -56 -4 -125
l0 -125 -110 0 -110 0 0 405 0 405 105 0 105 0 0 -27 c0 -24 1 -25 18 -10 57
52 192 63 277 23z m2297 -9 c61 -30 105 -74 140 -140 33 -60 33 -213 1 -272
-85 -159 -305 -221 -480 -135 -82 40 -128 95 -155 183 -33 111 -14 207 57 286
77 84 149 112 285 108 81 -2 104 -7 152 -30z m3144 1 c96 -50 151 -138 161
-258 l6 -70 -222 0 c-121 0 -221 -3 -221 -8 0 -17 33 -53 62 -68 48 -25 138
-22 183 6 l37 23 56 -56 c53 -53 55 -57 39 -75 -47 -51 -179 -88 -283 -79
-132 13 -225 70 -275 172 -81 164 -12 350 157 421 52 22 71 24 154 21 79 -3
104 -8 146 -29z m1773 17 c34 -11 67 -30 95 -58 66 -63 76 -109 76 -344 l0
-193 -100 0 -100 0 0 31 0 30 -34 -26 c-75 -57 -218 -57 -293 1 -90 68 -96
204 -12 266 50 37 101 51 220 57 105 6 106 6 98 28 -5 13 -23 32 -41 44 -27
16 -44 19 -95 16 -34 -3 -81 -14 -103 -25 l-41 -20 -35 70 c-19 39 -34 71 -32
73 14 12 77 38 120 49 72 20 212 20 277 1z m-4476 -174 c34 -96 62 -170 64
-165 2 5 30 83 62 174 l58 165 94 0 94 0 60 -177 60 -177 44 127 c24 70 53
151 63 180 l19 52 96 0 c87 0 95 -2 88 -17 -4 -10 -52 -145 -107 -300 l-101
-283 -102 0 -103 0 -51 146 c-28 80 -51 150 -51 155 0 5 -4 9 -9 9 -4 0 -33
-69 -63 -152 l-54 -153 -105 -3 -104 -2 -106 300 -106 301 100 -3 100 -3 60
-174z m3947 -121 l0 -300 -105 0 -105 0 0 300 0 300 105 0 105 0 0 -300z
m-1840 -60 l0 -240 -99 0 c-94 0 -99 1 -105 23 -16 61 -6 89 96 273 56 101
103 184 105 184 2 0 3 -108 3 -240z m-796 44 c90 -160 96 -175 96 -228 l0 -56
-105 0 -105 0 0 237 c0 143 4 233 9 228 5 -6 52 -87 105 -181z m-2684 71 l0
-85 -185 0 -185 0 0 -135 0 -135 -110 0 -110 0 0 220 0 220 295 0 295 0 0 -85z"/>
<path d="M14372 4854 c-34 -24 -52 -68 -52 -129 0 -48 4 -60 33 -91 96 -106
240 -7 207 142 -13 58 -58 94 -118 94 -27 0 -57 -7 -70 -16z"/>
<path d="M5253 4828 c-6 -7 -20 -32 -33 -55 l-23 -41 30 -54 30 -53 64 -3 64
-2 33 55 33 55 -31 55 -31 55 -64 0 c-38 0 -66 -5 -72 -12z"/>
<path d="M7434 4856 c-60 -60 -51 -66 86 -66 109 0 119 1 113 18 -17 47 -72
82 -129 82 -28 0 -44 -8 -70 -34z"/>
<path d="M8185 4837 c-58 -58 -55 -174 6 -219 37 -28 102 -35 134 -14 41 27
65 75 65 129 0 88 -46 137 -131 137 -33 0 -47 -6 -74 -33z"/>
<path d="M10494 4855 c-54 -37 -73 -159 -33 -209 63 -80 169 -71 210 17 32 72
18 142 -36 185 -33 26 -109 30 -141 7z"/>
<path d="M13634 4856 c-59 -59 -51 -66 85 -66 114 0 119 1 114 20 -3 11 -21
33 -40 50 -27 24 -43 30 -79 30 -39 0 -51 -5 -80 -34z"/>
<path d="M15490 4673 c-57 -11 -80 -68 -38 -97 12 -9 40 -16 61 -16 50 0 97
43 97 89 0 30 -1 31 -47 30 -27 -1 -59 -4 -73 -6z"/>
</g>
</svg>
